<svg id="Group_3" data-name="Group 3" xmlns="http://www.w3.org/2000/svg" width="140" height="90" viewBox="0 0 140 90">
  <g id="Ellipse_4" data-name="Ellipse 4" fill="#5550f2" stroke="#707070" stroke-width="1">
    <circle cx="7.5" cy="7.5" r="7.5" stroke="none"/>
    <circle cx="7.5" cy="7.5" r="7" fill="none"/>
  </g>
  <g id="Ellipse_5" data-name="Ellipse 5" transform="translate(25)" fill="#5550f2" stroke="#707070" stroke-width="1">
    <circle cx="7.5" cy="7.5" r="7.5" stroke="none"/>
    <circle cx="7.5" cy="7.5" r="7" fill="none"/>
  </g>
  <g id="Ellipse_6" data-name="Ellipse 6" transform="translate(0 25)" fill="#5550f2" stroke="#707070" stroke-width="1">
    <circle cx="7.5" cy="7.5" r="7.5" stroke="none"/>
    <circle cx="7.5" cy="7.5" r="7" fill="none"/>
  </g>
  <g id="Ellipse_7" data-name="Ellipse 7" transform="translate(25 25)" fill="#5550f2" stroke="#707070" stroke-width="1">
    <circle cx="7.5" cy="7.5" r="7.5" stroke="none"/>
    <circle cx="7.5" cy="7.5" r="7" fill="none"/>
  </g>
  <g id="Ellipse_8" data-name="Ellipse 8" fill="#5550f2" stroke="#707070" stroke-width="1">
    <circle cx="7.5" cy="7.5" r="7.5" stroke="none"/>
    <circle cx="7.5" cy="7.5" r="7" fill="none"/>
  </g>
  <g id="Ellipse_9" data-name="Ellipse 9" transform="translate(25)" fill="#5550f2" stroke="#707070" stroke-width="1">
    <circle cx="7.5" cy="7.5" r="7.5" stroke="none"/>
    <circle cx="7.5" cy="7.5" r="7" fill="none"/>
  </g>
  <g id="Ellipse_10" data-name="Ellipse 10" transform="translate(0 25)" fill="#5550f2" stroke="#707070" stroke-width="1">
    <circle cx="7.5" cy="7.5" r="7.5" stroke="none"/>
    <circle cx="7.5" cy="7.5" r="7" fill="none"/>
  </g>
  <g id="Ellipse_11" data-name="Ellipse 11" transform="translate(25 25)" fill="#5550f2" stroke="#707070" stroke-width="1">
    <circle cx="7.5" cy="7.5" r="7.5" stroke="none"/>
    <circle cx="7.5" cy="7.5" r="7" fill="none"/>
  </g>
  <g id="Ellipse_12" data-name="Ellipse 12" transform="translate(50)" fill="#5550f2" stroke="#707070" stroke-width="1">
    <circle cx="7.5" cy="7.5" r="7.5" stroke="none"/>
    <circle cx="7.5" cy="7.5" r="7" fill="none"/>
  </g>
  <g id="Ellipse_13" data-name="Ellipse 13" transform="translate(75)" fill="#5550f2" stroke="#707070" stroke-width="1">
    <circle cx="7.5" cy="7.5" r="7.5" stroke="none"/>
    <circle cx="7.5" cy="7.5" r="7" fill="none"/>
  </g>
  <g id="Ellipse_14" data-name="Ellipse 14" transform="translate(50 25)" fill="#5550f2" stroke="#707070" stroke-width="1">
    <circle cx="7.5" cy="7.5" r="7.5" stroke="none"/>
    <circle cx="7.5" cy="7.5" r="7" fill="none"/>
  </g>
  <g id="Ellipse_15" data-name="Ellipse 15" transform="translate(75 25)" fill="#5550f2" stroke="#707070" stroke-width="1">
    <circle cx="7.5" cy="7.5" r="7.5" stroke="none"/>
    <circle cx="7.5" cy="7.5" r="7" fill="none"/>
  </g>
  <g id="Ellipse_16" data-name="Ellipse 16" transform="translate(50)" fill="#5550f2" stroke="#707070" stroke-width="1">
    <circle cx="7.5" cy="7.5" r="7.5" stroke="none"/>
    <circle cx="7.5" cy="7.5" r="7" fill="none"/>
  </g>
  <g id="Ellipse_17" data-name="Ellipse 17" transform="translate(75)" fill="#5550f2" stroke="#707070" stroke-width="1">
    <circle cx="7.5" cy="7.5" r="7.5" stroke="none"/>
    <circle cx="7.5" cy="7.5" r="7" fill="none"/>
  </g>
  <g id="Ellipse_18" data-name="Ellipse 18" transform="translate(50 25)" fill="#5550f2" stroke="#707070" stroke-width="1">
    <circle cx="7.5" cy="7.5" r="7.5" stroke="none"/>
    <circle cx="7.5" cy="7.5" r="7" fill="none"/>
  </g>
  <g id="Ellipse_19" data-name="Ellipse 19" transform="translate(75 25)" fill="#5550f2" stroke="#707070" stroke-width="1">
    <circle cx="7.5" cy="7.5" r="7.5" stroke="none"/>
    <circle cx="7.5" cy="7.5" r="7" fill="none"/>
  </g>
  <g id="Ellipse_20" data-name="Ellipse 20" transform="translate(100)" fill="#5550f2" stroke="#707070" stroke-width="1">
    <circle cx="7.5" cy="7.5" r="7.5" stroke="none"/>
    <circle cx="7.5" cy="7.5" r="7" fill="none"/>
  </g>
  <g id="Ellipse_21" data-name="Ellipse 21" transform="translate(125)" fill="#5550f2" stroke="#707070" stroke-width="1">
    <circle cx="7.5" cy="7.5" r="7.5" stroke="none"/>
    <circle cx="7.5" cy="7.5" r="7" fill="none"/>
  </g>
  <g id="Ellipse_22" data-name="Ellipse 22" transform="translate(100 25)" fill="#5550f2" stroke="#707070" stroke-width="1">
    <circle cx="7.5" cy="7.5" r="7.5" stroke="none"/>
    <circle cx="7.5" cy="7.5" r="7" fill="none"/>
  </g>
  <g id="Ellipse_23" data-name="Ellipse 23" transform="translate(125 25)" fill="#5550f2" stroke="#707070" stroke-width="1">
    <circle cx="7.5" cy="7.5" r="7.5" stroke="none"/>
    <circle cx="7.5" cy="7.5" r="7" fill="none"/>
  </g>
  <g id="Ellipse_24" data-name="Ellipse 24" transform="translate(100)" fill="#5550f2" stroke="#707070" stroke-width="1">
    <circle cx="7.5" cy="7.5" r="7.5" stroke="none"/>
    <circle cx="7.5" cy="7.5" r="7" fill="none"/>
  </g>
  <g id="Ellipse_25" data-name="Ellipse 25" transform="translate(125)" fill="#5550f2" stroke="#707070" stroke-width="1">
    <circle cx="7.5" cy="7.5" r="7.5" stroke="none"/>
    <circle cx="7.5" cy="7.5" r="7" fill="none"/>
  </g>
  <g id="Ellipse_26" data-name="Ellipse 26" transform="translate(100 25)" fill="#5550f2" stroke="#707070" stroke-width="1">
    <circle cx="7.5" cy="7.5" r="7.5" stroke="none"/>
    <circle cx="7.5" cy="7.5" r="7" fill="none"/>
  </g>
  <g id="Ellipse_27" data-name="Ellipse 27" transform="translate(125 25)" fill="#5550f2" stroke="#707070" stroke-width="1">
    <circle cx="7.5" cy="7.5" r="7.5" stroke="none"/>
    <circle cx="7.5" cy="7.5" r="7" fill="none"/>
  </g>
  <g id="Ellipse_28" data-name="Ellipse 28" transform="translate(0 50)" fill="#5550f2" stroke="#707070" stroke-width="1">
    <circle cx="7.5" cy="7.5" r="7.5" stroke="none"/>
    <circle cx="7.5" cy="7.5" r="7" fill="none"/>
  </g>
  <g id="Ellipse_29" data-name="Ellipse 29" transform="translate(25 50)" fill="#5550f2" stroke="#707070" stroke-width="1">
    <circle cx="7.5" cy="7.5" r="7.5" stroke="none"/>
    <circle cx="7.5" cy="7.5" r="7" fill="none"/>
  </g>
  <g id="Ellipse_30" data-name="Ellipse 30" transform="translate(0 75)" fill="#5550f2" stroke="#707070" stroke-width="1">
    <circle cx="7.5" cy="7.5" r="7.5" stroke="none"/>
    <circle cx="7.5" cy="7.5" r="7" fill="none"/>
  </g>
  <g id="Ellipse_31" data-name="Ellipse 31" transform="translate(25 75)" fill="#5550f2" stroke="#707070" stroke-width="1">
    <circle cx="7.5" cy="7.5" r="7.5" stroke="none"/>
    <circle cx="7.5" cy="7.5" r="7" fill="none"/>
  </g>
  <g id="Ellipse_32" data-name="Ellipse 32" transform="translate(0 50)" fill="#5550f2" stroke="#707070" stroke-width="1">
    <circle cx="7.5" cy="7.5" r="7.5" stroke="none"/>
    <circle cx="7.5" cy="7.5" r="7" fill="none"/>
  </g>
  <g id="Ellipse_33" data-name="Ellipse 33" transform="translate(25 50)" fill="#5550f2" stroke="#707070" stroke-width="1">
    <circle cx="7.5" cy="7.5" r="7.5" stroke="none"/>
    <circle cx="7.5" cy="7.5" r="7" fill="none"/>
  </g>
  <g id="Ellipse_34" data-name="Ellipse 34" transform="translate(0 75)" fill="#5550f2" stroke="#707070" stroke-width="1">
    <circle cx="7.5" cy="7.5" r="7.5" stroke="none"/>
    <circle cx="7.5" cy="7.5" r="7" fill="none"/>
  </g>
  <g id="Ellipse_35" data-name="Ellipse 35" transform="translate(25 75)" fill="#5550f2" stroke="#707070" stroke-width="1">
    <circle cx="7.5" cy="7.5" r="7.5" stroke="none"/>
    <circle cx="7.5" cy="7.5" r="7" fill="none"/>
  </g>
  <g id="Ellipse_36" data-name="Ellipse 36" transform="translate(50 50)" fill="#5550f2" stroke="#707070" stroke-width="1">
    <circle cx="7.5" cy="7.5" r="7.5" stroke="none"/>
    <circle cx="7.5" cy="7.5" r="7" fill="none"/>
  </g>
  <g id="Ellipse_37" data-name="Ellipse 37" transform="translate(75 50)" fill="#5550f2" stroke="#707070" stroke-width="1">
    <circle cx="7.5" cy="7.5" r="7.5" stroke="none"/>
    <circle cx="7.5" cy="7.5" r="7" fill="none"/>
  </g>
  <g id="Ellipse_38" data-name="Ellipse 38" transform="translate(50 75)" fill="#5550f2" stroke="#707070" stroke-width="1">
    <circle cx="7.5" cy="7.5" r="7.5" stroke="none"/>
    <circle cx="7.5" cy="7.5" r="7" fill="none"/>
  </g>
  <g id="Ellipse_39" data-name="Ellipse 39" transform="translate(75 75)" fill="#5550f2" stroke="#707070" stroke-width="1">
    <circle cx="7.5" cy="7.5" r="7.5" stroke="none"/>
    <circle cx="7.5" cy="7.5" r="7" fill="none"/>
  </g>
  <g id="Ellipse_40" data-name="Ellipse 40" transform="translate(50 50)" fill="#5550f2" stroke="#707070" stroke-width="1">
    <circle cx="7.5" cy="7.5" r="7.5" stroke="none"/>
    <circle cx="7.5" cy="7.5" r="7" fill="none"/>
  </g>
  <g id="Ellipse_41" data-name="Ellipse 41" transform="translate(75 50)" fill="#5550f2" stroke="#707070" stroke-width="1">
    <circle cx="7.5" cy="7.5" r="7.5" stroke="none"/>
    <circle cx="7.5" cy="7.5" r="7" fill="none"/>
  </g>
  <g id="Ellipse_42" data-name="Ellipse 42" transform="translate(50 75)" fill="#5550f2" stroke="#707070" stroke-width="1">
    <circle cx="7.5" cy="7.5" r="7.5" stroke="none"/>
    <circle cx="7.5" cy="7.5" r="7" fill="none"/>
  </g>
  <g id="Ellipse_43" data-name="Ellipse 43" transform="translate(75 75)" fill="#5550f2" stroke="#707070" stroke-width="1">
    <circle cx="7.5" cy="7.5" r="7.5" stroke="none"/>
    <circle cx="7.5" cy="7.5" r="7" fill="none"/>
  </g>
  <g id="Ellipse_44" data-name="Ellipse 44" transform="translate(100 50)" fill="#5550f2" stroke="#707070" stroke-width="1">
    <circle cx="7.5" cy="7.5" r="7.5" stroke="none"/>
    <circle cx="7.5" cy="7.5" r="7" fill="none"/>
  </g>
  <g id="Ellipse_45" data-name="Ellipse 45" transform="translate(125 50)" fill="#5550f2" stroke="#707070" stroke-width="1">
    <circle cx="7.5" cy="7.5" r="7.5" stroke="none"/>
    <circle cx="7.5" cy="7.5" r="7" fill="none"/>
  </g>
  <g id="Ellipse_46" data-name="Ellipse 46" transform="translate(100 75)" fill="#5550f2" stroke="#707070" stroke-width="1">
    <circle cx="7.5" cy="7.5" r="7.5" stroke="none"/>
    <circle cx="7.5" cy="7.5" r="7" fill="none"/>
  </g>
  <g id="Ellipse_47" data-name="Ellipse 47" transform="translate(125 75)" fill="#5550f2" stroke="#707070" stroke-width="1">
    <circle cx="7.5" cy="7.5" r="7.5" stroke="none"/>
    <circle cx="7.5" cy="7.5" r="7" fill="none"/>
  </g>
  <g id="Ellipse_48" data-name="Ellipse 48" transform="translate(100 50)" fill="#5550f2" stroke="#707070" stroke-width="1">
    <circle cx="7.5" cy="7.5" r="7.5" stroke="none"/>
    <circle cx="7.5" cy="7.5" r="7" fill="none"/>
  </g>
  <g id="Ellipse_49" data-name="Ellipse 49" transform="translate(125 50)" fill="#5550f2" stroke="#707070" stroke-width="1">
    <circle cx="7.5" cy="7.5" r="7.5" stroke="none"/>
    <circle cx="7.5" cy="7.5" r="7" fill="none"/>
  </g>
  <g id="Ellipse_50" data-name="Ellipse 50" transform="translate(100 75)" fill="#5550f2" stroke="#707070" stroke-width="1">
    <circle cx="7.5" cy="7.5" r="7.5" stroke="none"/>
    <circle cx="7.5" cy="7.5" r="7" fill="none"/>
  </g>
  <g id="Ellipse_51" data-name="Ellipse 51" transform="translate(125 75)" fill="#5550f2" stroke="#707070" stroke-width="1">
    <circle cx="7.5" cy="7.5" r="7.5" stroke="none"/>
    <circle cx="7.5" cy="7.5" r="7" fill="none"/>
  </g>
</svg>
